<?xml version="1.0" encoding="utf-8"?>
<!-- Generator: Adobe Illustrator 16.0.0, SVG Export Plug-In . SVG Version: 6.00 Build 0)  -->
<!DOCTYPE svg PUBLIC "-//W3C//DTD SVG 1.1//EN" "http://www.w3.org/Graphics/SVG/1.1/DTD/svg11.dtd">
<svg version="1.1" xmlns="http://www.w3.org/2000/svg" xmlns:xlink="http://www.w3.org/1999/xlink" x="0px" y="0px" width="50px"
	 height="50px" viewBox="0 0 50 50" enable-background="new 0 0 50 50" xml:space="preserve">
	<path id="bottomArrow" d="M25.001,44.027c-0.26,0-0.51-0.102-0.693-0.287L2.787,22.219c-0.375-0.388-0.365-1.007,0.024-1.383
		c0.379-0.365,0.98-0.365,1.359,0l20.832,20.83l20.828-20.832c0.39-0.375,1.009-0.364,1.384,0.025c0.366,0.379,0.366,0.98,0,1.358
		L25.692,43.738C25.509,43.924,25.261,44.027,25.001,44.027z"/>
	<path id="topArrow" d="M24.99,27.95c-0.26,0.003-0.51-0.101-0.693-0.283L2.775,6.144C2.399,5.755,2.41,5.136,2.799,4.761
		c0.379-0.366,0.98-0.366,1.359,0L24.99,25.59L45.817,4.759c0.377-0.389,0.995-0.399,1.384-0.024
		c0.389,0.375,0.399,0.995,0.023,1.383c-0.007,0.008-0.016,0.016-0.023,0.024L25.68,27.664C25.497,27.847,25.249,27.95,24.99,27.95z
		"/>
</svg>
