<?xml version="1.0" encoding="utf-8"?>
<!-- Generator: Adobe Illustrator 16.0.0, SVG Export Plug-In . SVG Version: 6.00 Build 0)  -->
<!DOCTYPE svg PUBLIC "-//W3C//DTD SVG 1.1//EN" "http://www.w3.org/Graphics/SVG/1.1/DTD/svg11.dtd">
<svg version="1.1" xmlns="http://www.w3.org/2000/svg" xmlns:xlink="http://www.w3.org/1999/xlink" x="0px" y="0px" width="400px"
	 height="400px" viewBox="0 0 400 400" enable-background="new 0 0 400 400" xml:space="preserve">
<g id="Bottom_1_">
	<path id="Bottom" fill="#6D6D6D" d="M200.74,168.241l-96.161,54.475v109.041l96.161,54.482l96.161-54.482V222.716L200.74,168.241z
		 M292.463,327.62c-11.836-7.227-79.889-49.146-90.244-54.947V174.18l90.244,51.122V327.62z M197.781,175.018v97.602l-88.764,54.342
		v-101.66L197.781,175.018z M112.198,330.612l88.484-54.17c9.951,6.102,74.719,45.816,89.395,54.441L201.38,381.14L112.198,330.612z
		"/>
</g>
<g id="TRight_1_">
	<path id="TRight" fill="#6D6D6D" d="M292.77,9.287l-94.685,54.506v109.044l98.425,54.472l90.938-54.523V63.792L292.77,9.287z
		 M383.01,167.149c-17.753-10.141-81.367-46.524-87.284-50.301V15.686l87.284,50.672V167.149z M291.287,15.686v101.432
		l-88.765,49.68V66.358L291.287,15.686z M297.061,222.186l-92.4-51.136l89.077-50.272c8.419,4.828,71.169,40.809,88.307,50.458
		L297.061,222.186z"/>
</g>
<g id="TLeft_1_">
	<path id="TLeft" fill="#6D6D6D" d="M106.167,8.292L12.242,62.798v109.009l93.925,54.496l96.918-54.475V62.778L106.167,8.292z
		 M198.646,166.828c-14.794-8.709-79.887-44.095-90.243-49.64V14.642l90.243,50.732V166.828z M103.965,14.702v102.374L16.68,167.461
		V65.354L103.965,14.702z M20.202,170.924l86.613-49.999c9.601,5.292,73.683,40.602,90.169,49.6l-90.143,50.667L20.202,170.924z"/>
</g>
</svg>
